# xmcd CD database file
#
# Track frame offsets:
#	150
#	12287
#	31467
#	41620
#	54810
#	75925
#	90357
#	108157
#	121815
#	133592
#	149827
#	166050
#	180897
#	197672
#
# Disc length: 2883 seconds
#
# Revision: 0
# Processed by: cddbd v1.5.2PL0 Copyright (c) Steve Scherf et al.
# Submitted via: CDex 1.70beta2
#
DISCID=a10b410e
DTITLE=Bertice Reading - Two Moods of Bertice Reading
DYEAR=1992
DGENRE=Jazz
TTITLE0=Baby Wont You Please Come Home
TTITLE1=Cant Help Lovin Dat Man
TTITLE2=Therell Be Some Changes Made
TTITLE3=Lonesome (Si tu vois ma mere)
TTITLE4=I Cried For You
TTITLE5=Toot Toot Tootsie
TTITLE6=Dont Take Your Love From Me
TTITLE7=Petite Fluer
TTITLE8=A-Tisket A-Tasket
TTITLE9=What A Difference A Day Made
TTITLE10=How About You
TTITLE11=I Shall Not Be Moved
TTITLE12=After Youve Gone
TTITLE13=Some Of These Days
EXTD=YEAR: 1992
EXTT0=
EXTT1=
EXTT2=
EXTT3=
EXTT4=
EXTT5=
EXTT6=
EXTT7=
EXTT8=
EXTT9=
EXTT10=
EXTT11=
EXTT12=
EXTT13=
PLAYORDER=
